<svg width="24" height="24" viewBox="0 0 24 24" fill="none" xmlns="http://www.w3.org/2000/svg">
<path d="M6 17H18L14.925 12.9C14.7417 12.8667 14.5542 12.825 14.3625 12.775C14.1708 12.725 13.9833 12.6667 13.8 12.6L11.25 16L9 13L6 17ZM5 21C4.45 21 3.97917 20.8042 3.5875 20.4125C3.19583 20.0208 3 19.55 3 19V5C3 4.45 3.19583 3.97917 3.5875 3.5875C3.97917 3.19583 4.45 3 5 3H10V5H5V19H19V13.675L21 15.675V19C21 19.55 20.8042 20.0208 20.4125 20.4125C20.0208 20.8042 19.55 21 19 21H5Z" fill="#059669"/>
<path d="M15.55 11.075L12 7.525L13.425 6.125L15.55 8.25L19.8 4L21.2 5.425L15.55 11.075Z" fill="#059669"/>
</svg>
